<svg xmlns="http://www.w3.org/2000/svg" width="556.669" height="556.668"><path d="M545.783 241.471l-45.267-60.229-13.474-74.125a54.1 54.1 0 00-45.697-43.954l-74.595-10.58-61.936-42.884c-15.56-10.776-35.2-12.679-52.544-5.098a54.242 54.242 0 00-10.843 6.333l-60.225 45.262-74.127 13.474a54.248 54.248 0 00-12.016 3.664c-17.08 7.464-29.316 23.573-31.936 42.031l-10.579 74.588L9.654 251.9a54.102 54.102 0 001.23 63.391l45.267 60.217 13.468 74.124a54.112 54.112 0 0045.699 43.963l74.596 10.584 61.93 42.885c15.33 10.615 35.463 12.572 52.545 5.096a54.292 54.292 0 0010.849-6.328l60.231-45.267 74.13-13.474a54.38 54.38 0 0012.014-3.65c17.082-7.467 29.313-23.571 31.934-42.036l10.578-74.596 42.891-61.941a54.113 54.113 0 00-1.233-63.397zM278.331 476.403c-109.22 0-198.071-88.856-198.071-198.073 0-109.22 88.852-198.074 198.071-198.074S476.402 169.11 476.402 278.33c0 109.216-88.851 198.073-198.071 198.073z"/><path d="M239.539 258.523c4.099-2.504 6.151-6.952 6.151-13.342 0-7.068-2.71-11.749-8.15-14.001-4.673-1.564-10.659-2.376-17.911-2.376h-28.246v33.479H223.5c6.584-.001 11.93-1.251 16.039-3.76zm-.409 31.457c-3.594-1.657-8.673-2.506-15.18-2.563h-32.573v40.441h32.073c6.586 0 11.687-.859 15.366-2.662 6.638-3.313 9.965-9.615 9.965-18.951.001-7.887-3.219-13.334-9.651-16.265z"/><path d="M278.331 98.936c-98.915 0-179.396 80.476-179.396 179.394 0 98.912 80.476 179.391 179.396 179.391 98.92 0 179.394-80.479 179.394-179.391 0-98.918-80.479-179.394-179.394-179.394zm37.202 109.814h61.117v15.18h-61.117v-15.18zm-41.518 123.876c-2.874 4.729-6.447 8.715-10.732 11.92-4.836 3.708-10.558 6.256-17.126 7.628-6.597 1.356-13.74 2.04-21.432 2.04h-68.354V202.446h73.294c18.48.305 31.576 5.652 39.312 16.171 4.64 6.441 6.941 14.178 6.941 23.167 0 9.284-2.328 16.702-7.009 22.354-2.604 3.161-6.459 6.027-11.555 8.627 7.721 2.827 13.58 7.277 17.5 13.414 3.943 6.1 5.911 13.525 5.911 22.225-.005 9.01-2.227 17.088-6.75 24.222zm126.243-29.489h-79.153c.44 10.937 4.216 18.569 11.366 22.95 4.309 2.733 9.543 4.069 15.664 4.069 6.457 0 11.718-1.626 15.783-4.991 2.205-1.771 4.152-4.288 5.835-7.441h29.019c-.762 6.441-4.257 12.986-10.521 19.646-9.735 10.574-23.375 15.876-40.893 15.876-14.473 0-27.227-4.489-38.297-13.391-11.04-8.942-16.58-23.436-16.58-43.537 0-18.874 4.981-33.298 14.965-43.346 10.024-10.063 22.949-15.076 38.888-15.076 9.45 0 17.963 1.688 25.564 5.085 7.575 3.399 13.83 8.746 18.771 16.099 4.458 6.475 7.337 13.963 8.668 22.486.724 4.944 1.056 12.152.921 21.571z"/><path d="M346.322 261.316c-7.307 0-12.945 2.107-16.953 6.232-4.039 4.124-6.545 9.734-7.581 16.829h48.975c-.528-7.55-3.06-13.272-7.596-17.168-4.5-3.925-10.134-5.893-16.845-5.893z"/></svg>